<svg id="Layer_1" data-name="Layer 1" xmlns="http://www.w3.org/2000/svg" viewBox="0 0 940.47 563.33"><defs><style>.cls-1{fill:none;stroke:#9b8151;stroke-miterlimit:10;stroke-width:6px;}</style></defs><title>1 b</title><path class="cls-1" d="M-3340.14-244.29s28.67-5.62,48.91-6.91,118.29-.06,143.7-.94,222.53-3.71,250.94-4.06,93.36.53,133.42-3,68.11-1.94,98.11,0,68.47,2.11,95.83,1.58,67.41,1.06,89.64,3.53,45.53-.17,51.53.36,13.59.94,13.59.94-2.47,129.12-1.76,160.53-.71,246.88-2.3,266.29-2.11,47.12-2.29,56.65-1.06,30.35-1.41,38.47-.88,13.76-11.3,14.47-40.58.35-66.53,2.65-65.64,1.94-77.82,2.29-226.23,4.59-258.18,4.94-223.05,1.94-256.41,1.41-205.94-.84-214.23.11a180.58,180.58,0,0,1-24.18,1c-7.06-.17-8.82,1.59-11.65-9.88s-.88-30.35,0-44.29-.7-30.18-.7-44.47.05-123-.77-140.47-4.88-63.53-4.88-93.89.53-121.94,1.06-145.76S-3343.76-233.09-3340.14-244.29Z" transform="translate(3351.88 264.3)"/><path class="cls-1" d="M-3328.43,283.09s-3-117.12-3-129.12V1.27c0-27.18-1.94-53.91-2.73-59.47s-2-43.06-1.67-57.71,1.17-40.06,3.66-51.71,4.25-21,3.73-28.58.18-24.18.09-27.89-1.32-9,5-9.53,77.56-4.41,110.45-4.41,175.54-1.76,208.08-1.59,187.85-.52,217.4.18,154.07.42,181.69-.32,95,1.2,111.86,2.09,31.49-.36,44-.36,21.45-3.53,21.45,6,1.06,170.47,0,183.71-4.22,39.88-2.46,55.59,3.58,47.29,2.93,61.59-1.17,70.23-1.7,83.47-3.51,48.53-3.51,56.82-.18,28.59-.18,40.23-1.23,18.89-8.09,19.95-74.23,4.23-105,4.41-56.63-1.24-83,1.59-138.77,3.17-161.28,3.17-230.59,1.24-255.75,1.24-53.29.17-66.83,1.41-40.81.35-55.93-.88-67.72,1.06-89.53.53S-3328.43,283.09-3328.43,283.09Z" transform="translate(3351.88 264.3)"/></svg>