<svg id="Layer_1" data-name="Layer 1" xmlns="http://www.w3.org/2000/svg" viewBox="0 0 948.8 150.25"><defs><style>.cls-1{fill:none;stroke:#9b8151;stroke-miterlimit:10;stroke-width:5px;}</style></defs><title>2 b</title><path class="cls-1" d="M-3395.76,718.83c-2-.26-6.27-2.47-7.68-7.68s-6.18-32.11-6.18-37.32-.88-28.76,1.06-42.88a162.4,162.4,0,0,1,5.77-25.94c.94-3.53,1.29-3.88,3.23-4.06s23.3-4.41,34.59-5.38,64.06-.44,76.15-.36,92.91-1.94,104.11-1.85,91.95-1.68,111.18-2,110.38-.26,124.24-.62,88.14-.7,102.08-.79,45.62-2.47,60.53-2.47,52.06-1,70.59.35,73.77,2.12,97.5,2.38,74.83.36,94.68,1.42,52.59,1,54.88,1,2.82.45,3,3.27-2,51.53-2,64.76,1.24,57.36,1.41,61.06.44,5.12-3.61,5.39-96,2.73-119,2.73-130.15,2.29-151.95,2.29-38.2.8-65.91-.79-87.44-2.29-105-2-104.73-1.06-129.7-1-128.21-1.68-147.27-2.29-132.44-1.59-149.47-2.3-30-.35-39.17-2.12S-3395.76,718.83-3395.76,718.83Z" transform="translate(3412.32 -584.61)"/><path class="cls-1" d="M-3387.24,711.1c-3.29-.53-4.17-.77-4.58-5.42s.11-29.76-1.3-35.88-3.17-10.35-1.29-17.41,2.23-10.35,2.23-15.18V616.15c0-4.23-1.29-7.17,4.94-8.11s26-2.36,42.12-3.06,145.41-1.41,174.94-1.41,226.36-1.06,250.36-.94,190.7,0,210.94.23,117.06,1.29,148.23,1.41,71.06-.59,75.18-.23,6.35-.94,6.35,6.59-.23,96-.47,100.47-2.94,4-7.65,4-178.11,2-200.7,1.88-183.41-.47-198-.47-173.53-.59-195.06-.71-142.47-.94-169.41-.59-88.47-.58-104.24-1.29S-3387.24,711.1-3387.24,711.1Z" transform="translate(3412.32 -584.61)"/></svg>