<svg width="36" height="36" viewBox="0 0 36 36" fill="none" xmlns="http://www.w3.org/2000/svg">
  <path
    d="M35.491 14.9109L35.4816 14.8734L30.2222 1.50937C29.9879 0.754687 29.2894 0.234375 28.4972 0.234375H7.17848C6.3816 0.234375 5.67379 0.764063 5.44879 1.52813L0.531601 14.7562L0.517539 14.7891L0.508164 14.8266C0.447226 15.0562 0.428476 15.2906 0.461289 15.5203C0.456601 15.5953 0.451914 15.6703 0.451914 15.7453V32.8969C0.453154 33.6524 0.753818 34.3765 1.28803 34.9108C1.82224 35.445 2.54643 35.7456 3.30191 35.7469H32.7019C34.2722 35.7469 35.5519 34.4672 35.5566 32.8969V15.7453C35.5566 15.6844 35.5566 15.6234 35.5519 15.5719C35.5707 15.3422 35.5519 15.1219 35.491 14.9109ZM21.6254 12.8953L21.6113 13.6312C21.5738 15.7359 20.1207 17.1516 17.9972 17.1516C16.9613 17.1516 16.0707 16.8187 15.4285 16.1859C14.7863 15.5531 14.4347 14.6719 14.416 13.6312L14.4019 12.8953H4.75504L8.4816 3.83437H27.1941L31.0238 12.8953H21.6254ZM4.04723 16.4953H11.4207C12.5597 19.1719 14.9832 20.7516 18.0019 20.7516C19.5816 20.7516 21.0488 20.3109 22.2347 19.4766C23.2754 18.7453 24.0863 17.7234 24.6113 16.4953H31.9472V32.1469H4.04723V16.4953Z"
    fill="#8D7647" />
</svg>